<?xml version="1.0" encoding="UTF-8"?>
<svg id="Layer_1" data-name="Layer 1" xmlns="http://www.w3.org/2000/svg" viewBox="0 0 213.3 213.3" role="img" aria-labelledby="welly-title">
  <title id="welly-title">Welly</title>
  <defs>
    <style>
      .cls-1 { fill: #321551; }
      .cls-2 { fill: #00b9b1; }
    </style>
  </defs>
  <path class="cls-1" d="M80.24,34.88c3.71-8.57,15.35-9.88,20.91-2.37l70.85,95.08c5.03,6.98,12.74,19.7,14.99,37.01.31,2.29.5,4.63.6,7.01,14.29-17.78,22.84-40.36,22.84-64.95,0-57.32-46.46-103.78-103.78-103.78S2.87,49.33,2.87,106.65c0,24.62,8.58,47.23,22.9,65.03.72-12.69,4.33-22.64,6.6-27.91l47.87-108.89Z"/>
  <path class="cls-2" d="M106.65,210.43c32.73,0,61.92-15.16,80.94-38.83-.1-2.37-.3-4.72-.6-7.01-2.25-17.31-9.96-30.02-14.99-37.01L101.14,32.51c-5.56-7.51-17.2-6.2-20.91,2.37l-47.87,108.89c-2.27,5.27-5.88,15.21-6.6,27.91,19.02,23.63,48.18,38.76,80.88,38.76ZM138.57,114.47c6.29-.62,11.9,3.98,12.52,10.28.62,6.29-3.98,11.9-10.28,12.52s-11.9-3.98-12.52-10.28c-.62-6.29,3.98-11.9,10.28-12.52ZM110.97,136.01c.87-.08,1.66.58,1.73,1.46.17,2,1.94,3.49,3.94,3.31,2-.18,3.48-1.94,3.31-3.94-.08-.88.58-1.66,1.46-1.73.88-.08,1.66.57,1.73,1.46.33,3.76-2.46,7.08-6.22,7.41-.2.02-.4.03-.6.03-3.51,0-6.5-2.69-6.81-6.25-.08-.88.57-1.66,1.46-1.74ZM88.54,119.38c6.29-.62,11.9,3.98,12.52,10.28s-3.98,11.9-10.28,12.52-11.9-3.98-12.52-10.28,3.98-11.9,10.28-12.52Z"/>
  <path class="cls-1" d="M90.78,142.17c6.29-.62,10.9-6.22,10.28-12.52s-6.22-10.9-12.52-10.28c-6.29.62-10.9,6.22-10.28,12.52s6.22,10.9,12.52,10.28Z"/>
  <circle class="cls-1" cx="139.69" cy="125.87" r="11.45" transform="translate(-39.01 67.36) rotate(-23.89)"/>
  <path class="cls-1" d="M116.32,143.99c.2,0,.4,0,.6-.03,3.76-.33,6.55-3.65,6.22-7.41-.08-.88-.86-1.54-1.73-1.46-.88.08-1.53.85-1.46,1.73.17,2-1.31,3.77-3.31,3.94-2.01.18-3.77-1.31-3.94-3.31-.08-.88-.86-1.53-1.73-1.46-.88.08-1.53.85-1.46,1.74.31,3.56,3.3,6.25,6.81,6.25Z"/>
</svg>
